<?xml version="1.0"?>
<svg xmlns="http://www.w3.org/2000/svg" id="Layer" enable-background="new 0 0 64 64" height="512px" viewBox="0 0 64 64" width="512px"><g><path d="m32 8c-13.234 0-24 10.766-24 24s10.766 24 24 24c13.233 0 24-10.766 24-24s-10.767-24-24-24zm0 44c-11.028 0-20-8.972-20-20s8.972-20 20-20 20 8.972 20 20-8.972 20-20 20z" data-original="#000000" class="active-path" data-old_color="#000000" fill="#090909"/><path d="m40 30h-6v-6c0-1.104-.896-2-2-2s-2 .896-2 2v6h-6c-1.104 0-2 .896-2 2s.896 2 2 2h6v6c0 1.104.896 2 2 2s2-.896 2-2v-6h6c1.104 0 2-.896 2-2s-.896-2-2-2z" data-original="#000000" class="active-path" data-old_color="#000000" fill="#090909"/></g> </svg>
